<svg width="28" height="15" viewBox="0 0 28 15" fill="none" xmlns="http://www.w3.org/2000/svg">
<path fill-rule="evenodd" clip-rule="evenodd" d="M16.2099 6.00156H18.421C21.2693 6.00156 23.5779 3.64983 23.5779 0.752288C23.5779 0.664112 23.5779 0.582633 23.5779 0.508966C23.5779 0.228812 23.8027 0 24.078 0C24.9291 0 26.6477 0 27.4999 0C27.6326 0 27.7598 0.0535753 27.853 0.149565C27.9474 0.244438 28 0.373912 28 0.508966C28 0.582633 28 0.664112 28 0.752288C28 3.33619 26.9899 5.81628 25.1945 7.64454C25.1287 7.7104 25.064 7.77625 24.996 7.83987C26.8276 9.35226 28 11.6627 28 14.2477C28 14.3359 28 14.4174 28 14.491C28 14.6261 27.9474 14.7556 27.853 14.8504C27.7598 14.9464 27.6326 15 27.4999 15C26.6477 15 24.9291 15 24.078 15C23.9464 15 23.8181 14.9464 23.726 14.8504C23.6306 14.7556 23.5779 14.6261 23.5779 14.491C23.5779 14.4151 23.5779 14.3359 23.5779 14.2477C23.5779 12.1795 21.9295 10.4997 19.8939 10.4997H16.2099V14.2477C16.2099 14.4475 16.1321 14.6372 15.9939 14.779C15.8568 14.9196 15.6693 15 15.4718 15H14C6.26682 15 0 8.62118 0 0.752288C0 0.276806 0 0 0 0H4.421C4.421 0 4.421 0.280155 4.421 0.752288C4.421 3.33619 5.42891 5.81628 7.22648 7.64454C8.49213 8.93258 10.0758 9.82328 11.789 10.2374V0.752288C11.789 0.552496 11.8668 0.361634 12.005 0.220999C12.1421 0.080363 12.3297 0 12.5271 0C13.343 0 14.6559 0 15.4718 0C15.6693 0 15.8568 0.080363 15.9939 0.220999C16.1321 0.361634 16.2099 0.552496 16.2099 0.752288V6.00156Z" fill="white"/>
</svg>
