<svg width="24" height="24" viewBox="0 0 24 24" fill="none" xmlns="http://www.w3.org/2000/svg">
<g clip-path="url(#clip0_2121_785)">
<mask id="mask0_2121_785" style="mask-type:luminance" maskUnits="userSpaceOnUse" x="0" y="0" width="24" height="24">
<path d="M0 0H24V24H0V0Z" fill="white"/>
</mask>
<g mask="url(#mask0_2121_785)">
<path d="M11.9912 0.021551C5.32658 0.043426 -0.000499867 5.44864 0.0870002 12.0955C0.0942919 12.7643 0.158875 13.4278 0.279709 14.0861C0.3995 14.7445 0.5745 15.3882 0.804709 16.0163C1.03388 16.6455 1.31513 17.2507 1.64742 17.832C1.97971 18.4132 2.35888 18.9622 2.78388 19.4799C2.85158 19.5622 2.90471 19.6518 2.94429 19.7497C2.98492 19.8476 3.00888 19.9497 3.01825 20.0549C3.02763 20.1601 3.02138 20.2653 2.99846 20.3684C2.97658 20.4716 2.93908 20.5695 2.88804 20.6622L1.85888 22.5018C1.57346 23.0111 2.03804 23.6143 2.60575 23.4705L6.09117 22.5851C6.34221 22.5216 6.58388 22.5466 6.81721 22.6591C8.37658 23.4153 10.0235 23.8111 11.7568 23.8486C18.4578 23.9997 23.9568 18.6591 23.9787 11.9747C23.9985 5.36322 18.6203 -0.000323834 11.9912 0.021551ZM12.0318 22.3841C11.6891 22.3841 11.3464 22.3663 11.0058 22.333C10.6641 22.2997 10.3255 22.2497 9.98908 22.183C9.65263 22.1163 9.31929 22.033 8.99117 21.9341C8.66304 21.8341 8.34013 21.7195 8.02346 21.5882C7.70679 21.458 7.39742 21.3111 7.09429 21.1497C6.79221 20.9893 6.49846 20.8132 6.21304 20.6226C5.92763 20.433 5.65263 20.2299 5.387 20.0122C5.12242 19.7955 4.86825 19.5653 4.62554 19.3236C4.38283 19.082 4.15263 18.8288 3.93492 18.5643C3.71721 18.2997 3.51408 18.0257 3.32346 17.7403C3.13283 17.4559 2.95575 17.1632 2.79429 16.8611C2.63283 16.5601 2.48596 16.2507 2.35471 15.9341C2.22346 15.6184 2.10888 15.2966 2.00888 14.9695C1.90888 14.6413 1.82554 14.3101 1.75888 13.9747C1.69221 13.6393 1.64221 13.3007 1.60783 12.9611C1.5745 12.6205 1.55783 12.2788 1.55783 11.9361C1.55783 6.16739 6.24742 1.48926 12.0318 1.48926C17.7943 1.48926 22.4693 6.13093 22.5058 11.8695C22.5422 17.6278 17.8058 22.3841 12.0318 22.3841Z" fill="white"/>
</g>
<path fill-rule="evenodd" clip-rule="evenodd" d="M21.2887 12.9148C21.3187 12.6117 21.3337 12.3052 21.3337 12.0003C21.3337 11.6938 21.3187 11.389 21.2887 11.0858C21.2587 10.781 21.2137 10.4795 21.1538 10.1796C21.0938 9.87979 21.0205 9.58329 20.9305 9.29178C20.8423 8.9986 20.739 8.71042 20.6224 8.42891C20.5058 8.14572 20.3758 7.87087 20.2309 7.60102C20.0877 7.33116 19.9294 7.06963 19.7595 6.81477C19.5896 6.56157 19.408 6.3167 19.2148 6.08016C19.0199 5.84362 18.815 5.61708 18.6001 5.40053C18.3836 5.18564 18.157 4.97909 17.9205 4.78586C17.6839 4.59263 17.4391 4.41106 17.1859 4.24115C16.931 4.07124 16.6695 3.91299 16.3996 3.76973C16.1298 3.62481 15.8549 3.49488 15.5717 3.37828C15.2886 3.26167 15.0021 3.1584 14.7089 3.07011C14.4174 2.98016 14.1209 2.90686 13.821 2.8469C13.5212 2.78693 13.2197 2.74195 12.9148 2.71197C12.6117 2.68198 12.3052 2.66699 12.0003 2.66699C11.6938 2.66699 11.389 2.68198 11.0858 2.71197C10.781 2.74195 10.4795 2.78693 10.1796 2.8469C9.87979 2.90686 9.58329 2.98016 9.29178 3.07011C8.9986 3.1584 8.71042 3.26167 8.42891 3.37828C8.14572 3.49488 7.87087 3.62481 7.60102 3.76973C7.33116 3.91299 7.06963 4.07124 6.81477 4.24115C6.56157 4.41106 6.3167 4.59263 6.08016 4.78586C5.84362 4.97909 5.61708 5.18564 5.40053 5.40053C5.18564 5.61708 4.97909 5.84362 4.78586 6.08016C4.59263 6.3167 4.41106 6.56157 4.24115 6.81477C4.07124 7.06963 3.91299 7.33116 3.76973 7.60102C3.62481 7.87087 3.49488 8.14572 3.37828 8.42891C3.26167 8.71042 3.1584 8.9986 3.07011 9.29178C2.98016 9.58329 2.90686 9.87979 2.8469 10.1796C2.78693 10.4795 2.74195 10.781 2.71197 11.0858C2.68198 11.389 2.66699 11.6938 2.66699 12.0003C2.66699 12.3052 2.68198 12.6117 2.71197 12.9148C2.74195 13.2197 2.78693 13.5212 2.8469 13.821C2.90686 14.1209 2.98016 14.4174 3.07011 14.7089C3.1584 15.0021 3.26167 15.2886 3.37828 15.5717C3.49488 15.8549 3.62481 16.1298 3.76973 16.3996C3.91299 16.6695 4.07124 16.931 4.24115 17.1859C4.41106 17.4391 4.59263 17.6839 4.78586 17.9205C4.97909 18.157 5.18564 18.3836 5.40053 18.6001C5.61708 18.815 5.84362 19.0199 6.08016 19.2148C6.3167 19.408 6.56157 19.5896 6.81477 19.7595C7.06963 19.9294 7.33116 20.0877 7.60102 20.2309C7.87087 20.3758 8.14572 20.5058 8.42891 20.6224C8.71042 20.739 8.9986 20.8423 9.29178 20.9305C9.58329 21.0205 9.87979 21.0938 10.1796 21.1538C10.4795 21.2137 10.781 21.2587 11.0858 21.2887C11.389 21.3187 11.6938 21.3337 12.0003 21.3337C12.3052 21.3337 12.6117 21.3187 12.9148 21.2887C13.2197 21.2587 13.5212 21.2137 13.821 21.1538C14.1209 21.0938 14.4174 21.0205 14.7089 20.9305C15.0021 20.8423 15.2886 20.739 15.5717 20.6224C15.8549 20.5058 16.1298 20.3758 16.3996 20.2309C16.6695 20.0877 16.931 19.9294 17.1859 19.7595C17.4391 19.5896 17.6839 19.408 17.9205 19.2148C18.157 19.0199 18.3836 18.815 18.6001 18.6001C18.815 18.3836 19.0199 18.157 19.2148 17.9205C19.408 17.6839 19.5896 17.4391 19.7595 17.1859C19.9294 16.931 20.0877 16.6695 20.2309 16.3996C20.3758 16.1298 20.5058 15.8549 20.6224 15.5717C20.739 15.2886 20.8423 15.0021 20.9305 14.7089C21.0205 14.4174 21.0938 14.1209 21.1538 13.821C21.2137 13.5212 21.2587 13.2197 21.2887 12.9148ZM9.66505 6.98342L9.65984 6.97404C9.61818 6.89279 9.56922 6.81675 9.51193 6.74592C9.45568 6.67508 9.39318 6.60946 9.32339 6.55113C9.25359 6.49175 9.17859 6.44071 9.09943 6.39696C9.02026 6.35217 8.93693 6.31675 8.84943 6.28863C8.76297 6.2605 8.67443 6.24175 8.5838 6.23133C8.49318 6.22092 8.40255 6.21988 8.31193 6.22717C8.2213 6.23446 8.13172 6.25113 8.04422 6.27613C7.95672 6.30113 7.87234 6.33446 7.79109 6.37613L6.97547 6.79383C6.85464 6.85529 6.74526 6.93342 6.64734 7.02717C6.54943 7.12196 6.46714 7.22821 6.40047 7.34592C6.3338 7.46363 6.28589 7.58967 6.25672 7.72092C6.22651 7.85321 6.21609 7.98758 6.22651 8.123C6.70776 14.9345 12.6942 17.1876 15.2057 17.8355C15.3578 17.8751 15.513 17.8886 15.6692 17.8751C15.8265 17.8626 15.9765 17.824 16.1203 17.7595C16.264 17.6959 16.3932 17.6095 16.5078 17.5022C16.6223 17.3938 16.7161 17.2699 16.788 17.1313L17.2317 16.274C17.2557 16.2282 17.2765 16.1803 17.2953 16.1313C17.3276 16.047 17.3515 15.9595 17.3661 15.8699C17.3817 15.7803 17.388 15.6897 17.3848 15.599C17.3828 15.5084 17.3713 15.4188 17.3505 15.3303C17.3307 15.2418 17.3015 15.1553 17.264 15.073C17.2265 14.9897 17.1817 14.9115 17.1286 14.8376C17.0765 14.7636 17.0161 14.6949 16.9505 14.6334C16.8838 14.5709 16.8119 14.5157 16.7348 14.4668C16.6578 14.4188 16.5765 14.3782 16.4911 14.3459L14.8921 13.7397C14.6921 13.6636 14.4859 13.6365 14.2723 13.6553C14.0598 13.6751 13.8619 13.7407 13.6786 13.8511L13.2765 14.0959C13.1567 14.1678 13.0296 14.2209 12.8942 14.2543C12.7588 14.2886 12.6213 14.3022 12.4828 14.2949C12.3432 14.2876 12.2078 14.2595 12.0765 14.2126C11.9463 14.1647 11.8244 14.098 11.714 14.0147C10.7223 13.2668 10.0723 12.2313 9.69734 11.4803C9.63068 11.347 9.58693 11.2063 9.56714 11.0595C9.5463 10.9115 9.54943 10.7647 9.57547 10.6178C9.60255 10.472 9.65255 10.3334 9.72443 10.2022C9.7963 10.072 9.88693 9.95634 9.9963 9.85529C10.1057 9.75321 10.1973 9.6355 10.2692 9.50425C10.3411 9.373 10.3901 9.23342 10.4161 9.0855C10.4432 8.93863 10.4453 8.79071 10.4234 8.64175C10.4015 8.49383 10.3567 8.35321 10.289 8.21883L9.66505 6.98342Z" fill="white"/>
</g>
<defs>
<clipPath id="clip0_2121_785">
<rect width="24" height="24" fill="white"/>
</clipPath>
</defs>
</svg>
