<svg width="24" height="23" viewBox="0 0 24 23" fill="none" xmlns="http://www.w3.org/2000/svg">
<g clip-path="url(#clip0_2121_792)">
<mask id="mask0_2121_792" style="mask-type:luminance" maskUnits="userSpaceOnUse" x="0" y="0" width="24" height="23">
<path d="M0.984375 0.828125H23.0522V22.2068H0.984375V0.828125Z" fill="white"/>
</mask>
<g mask="url(#mask0_2121_792)">
<path d="M7.11438 0.828125C3.72938 0.828125 0.984375 3.48734 0.984375 6.76656V16.2684C0.984375 19.5476 3.72938 22.2068 7.11438 22.2068H16.9222C20.3072 22.2068 23.0522 19.5476 23.0522 16.2684V6.76656C23.0522 3.48734 20.3072 0.828125 16.9222 0.828125H7.11438ZM19.3744 3.20372C20.051 3.20372 20.6005 3.73545 20.6005 4.39097C20.6005 5.04703 20.051 5.57877 19.3744 5.57877C18.6977 5.57877 18.1483 5.04703 18.1483 4.39097C18.1483 3.73545 18.6977 3.20372 19.3744 3.20372ZM12.0183 5.57877C15.4033 5.57877 18.1483 8.23799 18.1483 11.5172C18.1483 14.7964 15.4033 17.4562 12.0183 17.4562C8.63326 17.4562 5.88826 14.7964 5.88826 11.5172C5.88826 8.23799 8.63326 5.57877 12.0183 5.57877ZM12.0183 7.95436C11.8977 7.95436 11.7777 7.96028 11.6577 7.97158C11.5377 7.98288 11.4188 8.0001 11.3005 8.02271C11.1827 8.04531 11.066 8.07384 10.9505 8.10774C10.8355 8.14165 10.7222 8.18094 10.611 8.22561C10.4994 8.27028 10.3905 8.31979 10.2844 8.37523C10.1783 8.43012 10.0749 8.48986 9.97493 8.55498C9.87493 8.61957 9.77826 8.68899 9.68493 8.76326C9.5916 8.837 9.50271 8.91557 9.41771 8.99792C9.33215 9.08026 9.2516 9.16691 9.17493 9.25679C9.09882 9.34721 9.02715 9.44085 8.95993 9.53773C8.89326 9.63514 8.8316 9.7347 8.77437 9.83804C8.71771 9.94083 8.6666 10.0463 8.62049 10.154C8.57438 10.2616 8.53382 10.3714 8.49882 10.4833C8.46382 10.5947 8.43438 10.7078 8.41104 10.8224C8.38715 10.9365 8.36993 11.0522 8.35771 11.1679C8.34604 11.2842 8.34049 11.401 8.34049 11.5172C8.34049 11.634 8.34604 11.7508 8.35771 11.8665C8.36993 11.9827 8.38715 12.0979 8.41104 12.2126C8.43438 12.3272 8.46382 12.4402 8.49882 12.5516C8.53382 12.6636 8.57438 12.7734 8.62049 12.881C8.6666 12.9886 8.71771 13.0941 8.77437 13.1969C8.8316 13.2997 8.89326 13.3998 8.95993 13.4972C9.02715 13.5941 9.09882 13.6877 9.17493 13.7776C9.2516 13.868 9.33215 13.9541 9.41771 14.037C9.50271 14.1194 9.5916 14.198 9.68493 14.2717C9.77826 14.346 9.87493 14.4154 9.97493 14.48C10.0749 14.5451 10.1783 14.6048 10.2844 14.6597C10.3905 14.7146 10.4994 14.7647 10.6105 14.8093C10.7222 14.854 10.8355 14.8933 10.9505 14.9272C11.066 14.9611 11.1827 14.9891 11.3005 15.0122C11.4188 15.0348 11.5377 15.0521 11.6577 15.0634C11.7777 15.0747 11.8977 15.0806 12.0183 15.0806C12.1388 15.0806 12.2588 15.0747 12.3788 15.0634C12.4988 15.0521 12.6177 15.0348 12.736 15.0122C12.8538 14.9891 12.9705 14.9611 13.086 14.9272C13.201 14.8933 13.3144 14.854 13.426 14.8093C13.5372 14.7647 13.646 14.7146 13.7522 14.6597C13.8583 14.6048 13.9616 14.5451 14.0616 14.48C14.1616 14.4154 14.2583 14.346 14.3516 14.2717C14.4449 14.198 14.5338 14.1194 14.6188 14.037C14.7044 13.9541 14.7849 13.868 14.8616 13.7776C14.9377 13.6877 15.0094 13.5941 15.0766 13.4972C15.1433 13.3998 15.2055 13.2997 15.2622 13.1969C15.3188 13.0941 15.3705 12.9886 15.4166 12.881C15.4627 12.7734 15.5027 12.6636 15.5377 12.5516C15.5727 12.4402 15.6022 12.3272 15.6255 12.2126C15.6494 12.0979 15.6666 11.9827 15.6788 11.8665C15.6905 11.7508 15.6966 11.634 15.6966 11.5172C15.6966 11.401 15.6905 11.2842 15.6788 11.1679C15.6666 11.0522 15.6494 10.9365 15.6255 10.8224C15.6022 10.7078 15.5727 10.5947 15.5377 10.4833C15.5027 10.3714 15.4627 10.2616 15.4166 10.154C15.3705 10.0463 15.3188 9.94083 15.2622 9.83804C15.2055 9.7347 15.1433 9.63514 15.0766 9.53773C15.0094 9.44085 14.9377 9.34721 14.8616 9.25679C14.7849 9.16691 14.7044 9.08026 14.6188 8.99792C14.5338 8.91557 14.4449 8.837 14.3516 8.76326C14.2583 8.68899 14.1616 8.61957 14.0616 8.55498C13.9616 8.48986 13.8583 8.43012 13.7522 8.37523C13.646 8.31979 13.5372 8.27028 13.426 8.22561C13.3144 8.18094 13.201 8.14165 13.086 8.10774C12.9705 8.07384 12.8538 8.04531 12.736 8.02271C12.6177 8.0001 12.4988 7.98288 12.3788 7.97158C12.2588 7.96028 12.1388 7.95436 12.0183 7.95436Z" fill="white"/>
</g>
</g>
<defs>
<clipPath id="clip0_2121_792">
<rect width="24" height="23" fill="white"/>
</clipPath>
</defs>
</svg>
