<?xml version="1.0" encoding="utf-8"?><svg viewBox="0 0 502.66 502.66" xmlns="http://www.w3.org/2000/svg" xmlns:xlink="http://www.w3.org/1999/xlink"><style>:root>svg{display:none}:root>svg:target{display:block}</style><svg viewBox="0 0 502.664 502.664" xml:space="preserve" id="icon" xmlns="http://www.w3.org/2000/svg"><path d="M153.821 358.226 0 274.337v-46.463l153.821-83.414v54.574L46.636 250.523l107.185 53.431v54.272zm26.273 29.358L282.103 115.08h32.227L212.084 387.584h-31.99zm168.749-29.358v-54.272l107.164-52.999-107.164-52.59v-53.927l153.821 83.522v46.183l-153.821 84.083z"/></svg><svg viewBox="0 0 24 23" id="insta" xmlns="http://www.w3.org/2000/svg"><g clip-path="url(#ba)"><mask id="bb" maskUnits="userSpaceOnUse" x="0" y="0" width="24" height="23"><path d="M.984.828h22.068v21.379H.984V.828Z"/></mask><g mask="url(#bb)"><path d="M7.114.828C3.73.828.984 3.488.984 6.767v9.501c0 3.28 2.745 5.939 6.13 5.939h9.808c3.385 0 6.13-2.66 6.13-5.939V6.767c0-3.28-2.745-5.939-6.13-5.939H7.114Zm12.26 2.376c.677 0 1.227.531 1.227 1.187s-.55 1.188-1.227 1.188c-.676 0-1.226-.532-1.226-1.188 0-.656.55-1.187 1.226-1.187Zm-7.356 2.375c3.385 0 6.13 2.659 6.13 5.938 0 3.28-2.745 5.94-6.13 5.94s-6.13-2.66-6.13-5.94c0-3.279 2.745-5.938 6.13-5.938Zm0 2.375a3.841 3.841 0 0 0-1.068.154 3.775 3.775 0 0 0-1.265.655 3.525 3.525 0 0 0-.51.494 3.8 3.8 0 0 0-.4.581 3.54 3.54 0 0 0-.417 1.33 3.501 3.501 0 0 0 .262 1.713 3.554 3.554 0 0 0 1.355 1.599 3.59 3.59 0 0 0 .636.33 3.827 3.827 0 0 0 1.047.253 3.841 3.841 0 0 0 1.078-.05 3.92 3.92 0 0 0 .69-.204 3.752 3.752 0 0 0 .926-.537 3.511 3.511 0 0 0 .51-.494 3.678 3.678 0 0 0 .4-.581 3.573 3.573 0 0 0 .276-.645 3.373 3.373 0 0 0 .14-.685 3.475 3.475 0 0 0-.261-1.713 3.56 3.56 0 0 0-1.355-1.599 3.586 3.586 0 0 0-.636-.33 3.829 3.829 0 0 0-1.047-.253 3.84 3.84 0 0 0-.36-.018Z"/></g></g><defs><clipPath id="ba"><path d="M0 0h24v23H0z"/></clipPath></defs></svg><svg viewBox="0 0 27 23" id="tg" xmlns="http://www.w3.org/2000/svg"><path d="m26.963 1.836-4.204 20.055a1.399 1.399 0 0 1-2.187.843L10.56 15.176 21.613 5.044s.75-.611.543-.8c-.231-.233-1.043.274-1.478.568-.418.297-13.532 8.698-13.532 8.698L.526 11.4c-.75-.232-.75-1.268.333-1.732L25.297.128c1.04-.53 1.894.695 1.666 1.708Z"/></svg><svg viewBox="0 0 28 15" id="vk" xmlns="http://www.w3.org/2000/svg"><path fill-rule="evenodd" clip-rule="evenodd" d="M16.21 6.002h2.211c2.848 0 5.157-2.352 5.157-5.25V.51c0-.28.225-.509.5-.509H27.5a.51.51 0 0 1 .5.509v.243a9.841 9.841 0 0 1-2.805 6.893c-.066.065-.131.131-.199.195A8.292 8.292 0 0 1 28 14.248v.243a.509.509 0 0 1-.5.509h-3.422a.506.506 0 0 1-.5-.509v-.243c0-2.068-1.648-3.748-3.684-3.748H16.21v3.748c0 .2-.078.39-.216.531a.729.729 0 0 1-.522.221H14C6.267 15 0 8.621 0 .752V0h4.421v.752a9.832 9.832 0 0 0 2.805 6.893 9.542 9.542 0 0 0 4.563 2.592V.752c0-.2.078-.39.216-.531A.729.729 0 0 1 12.527 0h2.945c.197 0 .385.08.522.221.138.14.216.331.216.531v5.25Z"/></svg><svg viewBox="0 0 24 24" id="whatsapp" xmlns="http://www.w3.org/2000/svg"><g clip-path="url(#ea)"><mask id="eb" maskUnits="userSpaceOnUse" x="0" y="0" width="24" height="24"><path d="M0 0h24v24H0V0Z"/></mask><g mask="url(#eb)"><path d="M11.991.022C5.327.043 0 5.449.087 12.095c.007.67.072 1.333.193 1.991.12.659.294 1.302.525 1.93a11.768 11.768 0 0 0 1.979 3.464 1.028 1.028 0 0 1 .234.575 1.065 1.065 0 0 1-.13.607l-1.03 1.84a.666.666 0 0 0 .748.969l3.485-.886c.251-.063.493-.038.726.074a11.775 11.775 0 0 0 4.94 1.19c6.7.15 12.2-5.19 12.222-11.874C23.999 5.363 18.62 0 11.99.022Zm.04 22.362a10.55 10.55 0 0 1-4.937-1.234c-.302-.16-.596-.337-.881-.527a10.242 10.242 0 0 1-1.587-1.3 10.364 10.364 0 0 1-1.832-2.462 10.331 10.331 0 0 1-.785-1.892 10.294 10.294 0 0 1-.401-2.008 10.3 10.3 0 0 1-.05-1.025c0-5.769 4.69-10.447 10.474-10.447 5.762 0 10.437 4.642 10.474 10.38.036 5.759-4.7 10.515-10.474 10.515Z"/></g><path fill-rule="evenodd" clip-rule="evenodd" d="M21.289 12.915a9.304 9.304 0 0 0-.667-4.486 9.157 9.157 0 0 0-1.408-2.349 9.917 9.917 0 0 0-.614-.68 9.5 9.5 0 0 0-1.414-1.159 9.17 9.17 0 0 0-1.614-.863 9.311 9.311 0 0 0-1.751-.531 9.205 9.205 0 0 0-1.82-.18 9.285 9.285 0 0 0-3.572.711A9.17 9.17 0 0 0 6.08 4.786c-.236.193-.463.4-.68.615a9.502 9.502 0 0 0-1.159 1.414 9.17 9.17 0 0 0-.863 1.614 9.21 9.21 0 0 0-.308.863 9.214 9.214 0 0 0-.358 3.623 9.205 9.205 0 0 0 .358 1.794 9.311 9.311 0 0 0 4.531 5.522 9.13 9.13 0 0 0 1.69.7 9.241 9.241 0 0 0 3.623.358 9.232 9.232 0 0 0 1.795-.359 9.288 9.288 0 0 0 3.212-1.715c.236-.195.463-.4.68-.615a9.752 9.752 0 0 0 1.16-1.414 9.158 9.158 0 0 0 .861-1.614 9.288 9.288 0 0 0 .532-1.751c.06-.3.105-.601.135-.906ZM9.665 6.983l-.005-.009a1.315 1.315 0 0 0-.148-.228 1.333 1.333 0 0 0-.413-.349 1.333 1.333 0 0 0-.515-.166 1.396 1.396 0 0 0-.793.145l-.816.418a1.372 1.372 0 0 0-.718.927c-.03.132-.04.267-.03.402.48 6.812 6.467 9.065 8.979 9.713a1.364 1.364 0 0 0 .914-.077 1.383 1.383 0 0 0 .668-.628l.444-.857a1.345 1.345 0 0 0 .134-.404c.016-.09.022-.18.019-.271a1.297 1.297 0 0 0-.035-.269 1.353 1.353 0 0 0-.4-.697 1.45 1.45 0 0 0-.459-.287l-1.599-.606a1.378 1.378 0 0 0-1.213.111l-.402.245a1.382 1.382 0 0 1-.794.199 1.41 1.41 0 0 1-.769-.28c-.992-.748-1.642-1.784-2.017-2.535a1.396 1.396 0 0 1-.122-.862 1.388 1.388 0 0 1 .421-.763 1.396 1.396 0 0 0 .42-.77 1.384 1.384 0 0 0-.127-.867l-.624-1.235Z"/></g><defs><clipPath id="ea"><path d="M0 0h24v24H0z"/></clipPath></defs></svg></svg>